<svg width="44" height="44" viewBox="0 0 44 44" fill="none" xmlns="http://www.w3.org/2000/svg">
<rect width="44" height="44" rx="22" fill="url(#paint0_linear_0_2285)"/>
<path d="M30.4229 15.9972C30.7782 16.7788 31.8883 16.7788 32.2436 15.9972L32.8447 14.6748C32.9448 14.4547 33.1212 14.2782 33.3413 14.1782L34.6638 13.5771C35.4454 13.2218 35.4454 12.1116 34.6638 11.7563L33.3413 11.1552C33.1212 11.0552 32.9448 10.8788 32.8447 10.6587L32.2436 9.33618C31.8883 8.55459 30.7782 8.55458 30.4229 9.33618L29.8218 10.6587C29.7217 10.8788 29.5453 11.0552 29.3252 11.1552L28.0027 11.7563C27.2211 12.1116 27.2211 13.2218 28.0027 13.5771L29.3252 14.1782C29.5453 14.2782 29.7217 14.4547 29.8218 14.6748L30.4229 15.9972Z" fill="white"/>
<path d="M32.2436 28.0028C31.8883 27.2213 30.7782 27.2213 30.4229 28.0028L29.8218 29.3253C29.7217 29.5454 29.5453 29.7218 29.3252 29.8219L28.0027 30.423C27.2211 30.7783 27.2211 31.8885 28.0027 32.2437L29.3252 32.8449C29.5453 32.9449 29.7217 33.1213 29.8218 33.3414L30.4229 34.6639C30.7782 35.4455 31.8883 35.4455 32.2436 34.6639L32.8447 33.3414C32.9448 33.1213 33.1212 32.9449 33.3413 32.8449L34.6638 32.2437C35.4454 31.8885 35.4454 30.7783 34.6638 30.423L33.3413 29.8219C33.1212 29.7218 32.9448 29.5454 32.8447 29.3253L32.2436 28.0028Z" fill="white"/>
<path d="M21.6746 18.8219C21.4545 18.7218 21.2781 18.5454 21.1781 18.3253L18.9103 13.3362C18.555 12.5546 17.4448 12.5546 17.0896 13.3362L14.8218 18.3253C14.7217 18.5454 14.5453 18.7218 14.3252 18.8219L9.33606 21.0897C8.55446 21.4449 8.55446 22.5551 9.33606 22.9104L14.3252 25.1782C14.5453 25.2782 14.7217 25.4547 14.8218 25.6748L17.0896 30.6639C17.4448 31.4455 18.555 31.4455 18.9103 30.6639L21.1781 25.6748C21.2781 25.4547 21.4545 25.2782 21.6746 25.1782L26.6638 22.9104C27.4454 22.5551 27.4454 21.4449 26.6638 21.0897L21.6746 18.8219ZM19.6617 23.1648C19.4414 23.2649 19.2648 23.4415 19.1647 23.6618L18.9104 24.2217C18.5553 25.0038 17.4445 25.0038 17.0894 24.2217L16.8351 23.6618C16.7351 23.4415 16.5585 23.2649 16.3381 23.1648L15.7782 22.9105C14.9962 22.5554 14.9962 21.4447 15.7782 21.0895L16.3381 20.8353C16.5585 20.7352 16.7351 20.5586 16.8351 20.3382L17.0894 19.7783C17.4445 18.9963 18.5553 18.9963 18.9104 19.7783L19.1647 20.3382C19.2648 20.5586 19.4414 20.7352 19.6617 20.8353L20.2216 21.0895C21.0036 21.4447 21.0036 22.5554 20.2216 22.9105L19.6617 23.1648Z" fill="white"/>
<defs>
<linearGradient id="paint0_linear_0_2285" x1="-0.603658" y1="23.5942" x2="48.8977" y2="23.5378" gradientUnits="userSpaceOnUse">
<stop stop-color="#50BCD9"/>
<stop offset="1" stop-color="#F14DFF"/>
</linearGradient>
</defs>
</svg>
