<svg width="125" height="24" viewBox="0 0 125 24" fill="none" xmlns="http://www.w3.org/2000/svg">
<path d="M30.4086 1.27734V23.0301H26.8906V1.27734H30.4086Z" fill="#101A34"/>
<path d="M49.0402 1.27734V4.18797H39.9419V10.6041H47.0386V13.5147H39.9419V23.0301H36.4219V1.27734H49.0402Z" fill="#101A34"/>
<path d="M67.5574 1.27734V4.18797H61.8498V23.0301H58.3338V4.18797H52.5938V1.27734H67.5574Z" fill="#101A34"/>
<path d="M74.094 21.8431H82.147V23.0328H72.707V1.06055H74.094V21.8431Z" fill="#101A34"/>
<path d="M88.0745 1.06055V23.0328H86.6875V1.06055H88.0745Z" fill="#101A34"/>
<path d="M97.1431 22.5001C96.1619 22.0549 95.3154 21.3526 94.6906 20.4654C94.106 19.6258 93.7566 18.6412 93.6797 17.6163H95.1293C95.3038 18.7937 95.8635 19.8774 96.7185 20.693C97.6122 21.5915 98.9749 22.0407 100.807 22.0407C101.77 22.0634 102.726 21.8599 103.599 21.4458C104.348 21.0871 104.984 20.523 105.435 19.8172C105.864 19.1351 106.089 18.3413 106.082 17.5322C106.082 16.4683 105.83 15.6232 105.326 14.9969C104.825 14.3735 104.178 13.8887 103.443 13.5877C102.452 13.1949 101.44 12.8607 100.41 12.5868C99.2589 12.2947 98.1298 11.9183 97.0319 11.4607C96.1754 11.082 95.4311 10.4831 94.8726 9.72332C94.2862 8.93977 93.9931 7.87042 93.9931 6.51528C93.9833 5.49741 94.268 4.49899 94.8119 3.64363C95.3838 2.75229 96.1908 2.04163 97.1411 1.59245C98.2335 1.07144 99.43 0.813803 100.637 0.839662C102.55 0.839662 104.092 1.31827 105.265 2.27549C106.382 3.14109 107.132 4.40538 107.364 5.81172H105.873C105.724 5.18769 105.448 4.60179 105.065 4.09078C104.593 3.46609 103.979 2.96645 103.275 2.63444C102.408 2.22818 101.46 2.03092 100.505 2.05806C99.0659 2.05806 97.8528 2.45941 96.8661 3.26211C96.3864 3.64078 96.0017 4.12916 95.7434 4.6874C95.4851 5.24563 95.3606 5.8579 95.3801 6.47425C95.3801 7.53676 95.6375 8.38664 96.1524 9.02387C96.6581 9.65392 97.3096 10.1472 98.0489 10.4597C99.0353 10.8617 100.049 11.1914 101.082 11.4463C102.238 11.7508 103.373 12.1339 104.478 12.5929C105.324 12.9684 106.058 13.5617 106.607 14.3139C107.194 15.0974 107.487 16.1565 107.487 17.4911C107.483 18.4752 107.212 19.4391 106.702 20.2766C106.153 21.187 105.37 21.9281 104.436 22.4201C103.437 22.9671 102.229 23.2406 100.811 23.2406C99.5493 23.2715 98.2967 23.0187 97.1431 22.5001Z" fill="#101A34"/>
<path d="M124.998 1.06055V2.25023H118.829V23.0328H117.44V2.25023H111.27V1.06055H124.998Z" fill="#101A34"/>
<path d="M11.3654 13.9535H18.2841C18.0145 15.8105 17.2846 17.2812 16.0945 18.3656C14.9043 19.4499 13.3508 19.9928 11.4341 19.9942C10.1073 20.0178 8.79826 19.6829 7.64113 19.024C6.5268 18.3744 5.62112 17.4121 5.03295 16.2528C4.38728 14.9709 4.0643 13.5467 4.09279 12.1074C4.06267 10.6725 4.38581 9.2526 5.03295 7.97632C5.62495 6.82405 6.53008 5.86805 7.64113 5.22158C8.79826 4.56262 10.1073 4.22777 11.4341 4.25137C12.6262 4.22275 13.8056 4.50527 14.8591 5.07185C15.8323 5.62052 16.6238 6.44912 17.1337 7.45327L20.7164 6.06872C19.9494 4.69548 18.857 3.5379 17.5381 2.70068C15.7959 1.63416 13.8096 1.04709 11.7754 0.997451C9.74123 0.94781 7.72945 1.43731 5.93874 2.41762C4.28191 3.34676 2.90569 4.716 1.95773 6.37845C0.964191 8.11758 0.454108 10.0975 0.481781 12.1074C0.45114 14.1163 0.957706 16.0962 1.94762 17.8363C2.89298 19.4947 4.263 20.8626 5.91245 21.7951C7.59916 22.75 9.50269 23.2407 11.4341 23.2186C14.0196 23.2427 16.5249 22.3083 18.4793 20.591C20.4338 18.8737 21.7031 16.4915 22.0488 13.8919V11.1044H11.3654V13.9535Z" fill="#101A34"/>
</svg>
