<svg width="21" height="20" viewBox="0 0 21 20" fill="none" xmlns="http://www.w3.org/2000/svg">
<path d="M15.4433 5.54211C15.7906 6.30619 16.8759 6.30619 17.2232 5.54211C17.321 5.32694 17.4935 5.15448 17.7087 5.05667C18.4727 4.70936 18.4727 3.62405 17.7087 3.27674C17.4935 3.17893 17.321 3.00648 17.2232 2.7913C16.8759 2.02722 15.7906 2.02722 15.4433 2.7913C15.3455 3.00648 15.173 3.17893 14.9578 3.27674C14.1938 3.62405 14.1938 4.70936 14.9578 5.05667C15.173 5.15448 15.3455 5.32694 15.4433 5.54211Z" fill="white"/>
<path d="M17.2232 14.458C16.8759 13.6939 15.7906 13.6939 15.4433 14.458C15.3455 14.6731 15.173 14.8456 14.9578 14.9434C14.1938 15.2907 14.1938 16.376 14.9578 16.7233C15.173 16.8211 15.3455 16.9936 15.4433 17.2088C15.7906 17.9729 16.8759 17.9729 17.2232 17.2088C17.321 16.9936 17.4935 16.8211 17.7087 16.7233C18.4727 16.376 18.4727 15.2907 17.7087 14.9434C17.4935 14.8456 17.321 14.6731 17.2232 14.458Z" fill="white"/>
<path d="M10.4246 8.07188C10.2045 7.97183 10.0281 7.79543 9.92807 7.57532L8.91028 5.33618C8.55501 4.55458 7.44482 4.55458 7.08955 5.33618L6.07176 7.57532C5.97171 7.79543 5.79531 7.97183 5.5752 8.07188L3.33606 9.08967C2.55446 9.44494 2.55446 10.5551 3.33606 10.9104L5.5752 11.9282C5.79531 12.0282 5.97171 12.2047 6.07176 12.4248L7.08955 14.6639C7.44482 15.4455 8.55501 15.4455 8.91028 14.6639L9.92807 12.4248C10.0281 12.2047 10.2045 12.0282 10.4246 11.9282L12.6638 10.9104C13.4454 10.5551 13.4454 9.44494 12.6638 9.08967L10.4246 8.07188ZM9.08951 10.7049C8.91893 10.7823 8.78223 10.919 8.70476 11.0896C8.42984 11.695 7.56999 11.695 7.29508 11.0896C7.21761 10.919 7.08091 10.7823 6.91033 10.7049C6.30495 10.43 6.30495 9.57012 6.91033 9.2952C7.08091 9.21773 7.21761 9.08103 7.29508 8.91045C7.56999 8.30508 8.42984 8.30508 8.70476 8.91045C8.78223 9.08103 8.91893 9.21773 9.08951 9.2952C9.69488 9.57012 9.69488 10.43 9.08951 10.7049Z" fill="white"/>
</svg>
