<svg width="24" height="24" viewBox="0 0 24 24" fill="none" xmlns="http://www.w3.org/2000/svg">
<rect width="24" height="24" rx="6" fill="white"/>
<path d="M14.6672 10.3425C15.619 11.0253 16.7849 11.427 18.0441 11.427V8.99521C17.8058 8.99526 17.5681 8.97032 17.335 8.92075V10.8349C16.0758 10.8349 14.91 10.4332 13.9581 9.7505V14.7131C13.9581 17.1957 11.9527 19.208 9.47913 19.208C8.55618 19.208 7.69833 18.928 6.98572 18.4478C7.79905 19.2823 8.9333 19.8001 10.1881 19.8001C12.6619 19.8001 14.6673 17.7877 14.6673 15.305V10.3425H14.6672ZM15.5421 7.88915C15.0557 7.35587 14.7363 6.66672 14.6672 5.90482V5.59204H13.9952C14.1643 6.56041 14.7413 7.38772 15.5421 7.88915ZM8.55026 16.5427C8.27851 16.1851 8.13165 15.7477 8.13231 15.2979C8.13231 14.1625 9.04955 13.2419 10.1812 13.2419C10.3921 13.2418 10.6017 13.2743 10.8027 13.3382V10.8521C10.5678 10.8198 10.3307 10.8061 10.0938 10.8111V12.7462C9.89267 12.6822 9.68294 12.6497 9.47199 12.6499C8.34037 12.6499 7.42319 13.5704 7.42319 14.706C7.42319 15.5089 7.88166 16.2041 8.55026 16.5427Z" fill="#FF004F"/>
<path d="M13.958 9.75045C14.91 10.4332 16.0757 10.8349 17.3349 10.8349V8.9207C16.632 8.77045 16.0098 8.40185 15.542 7.88915C14.7412 7.38767 14.1643 6.56036 13.9951 5.59204H12.2299V15.3049C12.2259 16.4373 11.3102 17.3541 10.181 17.3541C9.51559 17.3541 8.92443 17.0358 8.55004 16.5427C7.88149 16.2041 7.42303 15.5089 7.42303 14.706C7.42303 13.5706 8.34021 12.65 9.47183 12.65C9.68864 12.65 9.89762 12.6838 10.0936 12.7463V10.8112C7.66352 10.8615 5.70911 12.8542 5.70911 15.305C5.70911 16.5284 6.1958 17.6375 6.98571 18.4478C7.69832 18.928 8.55616 19.2081 9.47911 19.2081C11.9527 19.2081 13.958 17.1956 13.958 14.7131V9.75045H13.958Z" fill="black"/>
<path d="M17.3349 8.92065V8.40307C16.7011 8.40403 16.0798 8.2259 15.542 7.88904C16.018 8.41206 16.6449 8.77269 17.3349 8.92065ZM13.9951 5.59199C13.979 5.49945 13.9666 5.40629 13.958 5.31278V5H11.5206V14.713C11.5168 15.8452 10.6011 16.762 9.47185 16.762C9.1403 16.762 8.82727 16.6831 8.55006 16.5427C8.92445 17.0358 9.5156 17.354 10.181 17.354C11.3101 17.354 12.2259 16.4373 12.2299 15.3049V5.59199H13.9951ZM10.0938 10.8111V10.2601C9.89009 10.2322 9.68476 10.2181 9.47918 10.2183C7.00535 10.2182 5 12.2307 5 14.713C5 16.2693 5.78814 17.6409 6.98577 18.4477C6.19586 17.6374 5.70917 16.5282 5.70917 15.3049C5.70917 12.8542 7.66353 10.8615 10.0938 10.8111Z" fill="#00F2EA"/>
</svg>
